<svg width="52" height="62" viewBox="0 0 52 62" fill="none" xmlns="http://www.w3.org/2000/svg">
<path d="M10.4 46.5C10.4 47.9208 11.57 49.0833 13 49.0833H15.6V58.125C15.6 60.2692 17.342 62 19.5 62C21.658 62 23.4 60.2692 23.4 58.125V49.0833H28.6V58.125C28.6 60.2692 30.342 62 32.5 62C34.658 62 36.4 60.2692 36.4 58.125V49.0833H39C40.43 49.0833 41.6 47.9208 41.6 46.5V20.6667H10.4V46.5ZM3.9 20.6667C1.742 20.6667 0 22.3975 0 24.5417V42.625C0 44.7692 1.742 46.5 3.9 46.5C6.058 46.5 7.8 44.7692 7.8 42.625V24.5417C7.8 22.3975 6.058 20.6667 3.9 20.6667ZM48.1 20.6667C45.942 20.6667 44.2 22.3975 44.2 24.5417V42.625C44.2 44.7692 45.942 46.5 48.1 46.5C50.258 46.5 52 44.7692 52 42.625V24.5417C52 22.3975 50.258 20.6667 48.1 20.6667ZM35.178 5.58L38.558 2.22167C39.078 1.705 39.078 0.904167 38.558 0.3875C38.038 -0.129167 37.232 -0.129167 36.712 0.3875L32.864 4.21083C30.7364 3.14027 28.3849 2.58271 26 2.58333C23.504 2.58333 21.164 3.1775 19.084 4.21083L15.21 0.3875C14.69 -0.129167 13.884 -0.129167 13.364 0.3875C12.844 0.904167 12.844 1.705 13.364 2.22167L16.77 5.60583C14.7954 7.04135 13.1895 8.91941 12.0827 11.0874C10.9759 13.2555 10.3994 15.6523 10.4 18.0833H41.6C41.6 12.9425 39.078 8.39583 35.178 5.58ZM20.8 12.9167H18.2V10.3333H20.8V12.9167ZM33.8 12.9167H31.2V10.3333H33.8V12.9167Z" fill="#007DFE"/>
</svg>
