<svg width="78" height="78" viewBox="0 0 78 78" fill="none" xmlns="http://www.w3.org/2000/svg">
<path d="M68.25 73.125H53.625C52.3325 73.1237 51.0932 72.6097 50.1793 71.6957C49.2653 70.7818 48.7513 69.5425 48.75 68.25V53.625C48.7513 52.3325 49.2653 51.0932 50.1793 50.1793C51.0932 49.2653 52.3325 48.7513 53.625 48.75H68.25C69.5425 48.7513 70.7818 49.2653 71.6957 50.1793C72.6097 51.0932 73.1237 52.3325 73.125 53.625V68.25C73.1237 69.5425 72.6097 70.7818 71.6957 71.6957C70.7818 72.6097 69.5425 73.1237 68.25 73.125ZM53.625 53.625H53.6226L53.625 68.25H68.25V53.625H53.625Z" fill="#007DFE"/>
<path d="M43.875 63.375H29.25C27.3112 63.3731 25.4524 62.602 24.0814 61.2311C22.7105 59.8601 21.9394 58.0013 21.9375 56.0625V46.3125H26.8125V56.0625C26.8131 56.7088 27.0702 57.3284 27.5271 57.7854C27.9841 58.2423 28.6037 58.4994 29.25 58.5H43.875V63.375Z" fill="#007DFE"/>
<path d="M63.375 43.875H58.5V36.5625C58.4994 35.9162 58.2423 35.2966 57.7854 34.8396C57.3284 34.3827 56.7088 34.1256 56.0625 34.125H43.875V29.25H56.0625C58.0013 29.2519 59.8601 30.023 61.2311 31.3939C62.602 32.7649 63.3731 34.6237 63.375 36.5625V43.875Z" fill="#007DFE"/>
<path d="M36.5625 43.8752C36.1376 43.8755 35.7199 43.7645 35.3511 43.5534L24.375 37.2647L13.399 43.5534C12.9873 43.7892 12.5158 43.8996 12.0423 43.8713C11.5687 43.843 11.1137 43.6772 10.7331 43.3941C10.3525 43.111 10.0627 42.7229 9.89932 42.2776C9.73595 41.8322 9.70609 41.3489 9.8134 40.8868L12.3996 29.7425L5.53071 22.3813C5.23049 22.0592 5.02313 21.6617 4.93068 21.2312C4.83822 20.8007 4.86412 20.3532 5.00561 19.9362C5.14711 19.5192 5.39892 19.1483 5.73429 18.863C6.06966 18.5776 6.47607 18.3884 6.91034 18.3155L17.1478 16.6044L22.1837 6.24505C22.3818 5.8384 22.6891 5.49489 23.0713 5.25296C23.4535 5.01103 23.8955 4.88021 24.3478 4.87515C24.8001 4.87009 25.2449 4.99099 25.6324 5.22431C26.0199 5.45764 26.3348 5.79419 26.542 6.1963L31.9142 16.6044L41.8519 18.3155C42.2852 18.3902 42.6901 18.5807 43.024 18.8668C43.3578 19.1528 43.6081 19.5239 43.7482 19.9406C43.8884 20.3573 43.9132 20.8042 43.8201 21.2338C43.727 21.6635 43.5194 22.06 43.2193 22.3813L36.3505 29.7425L38.9342 40.8868C39.0171 41.244 39.0183 41.6153 38.9378 41.973C38.8572 42.3308 38.697 42.6657 38.4691 42.9529C38.2411 43.2402 37.9513 43.4723 37.6212 43.6319C37.2911 43.7916 36.9292 43.8748 36.5625 43.8752ZM24.375 31.6877C24.375 31.6877 25.2111 32.1264 25.5865 32.3434L32.9233 36.5456L31.0123 28.3142L36.5747 22.3545L28.6943 20.9968L24.4408 12.7532L20.4336 20.9968L12.1924 22.374L17.7353 28.3142L15.8243 36.5456L23.1611 32.3434C23.5414 32.1264 24.375 31.6877 24.375 31.6877Z" fill="#007DFE"/>
</svg>
