<svg width="78" height="62" viewBox="0 0 78 62" fill="none" xmlns="http://www.w3.org/2000/svg">
<path d="M31.0818 31.6842C31.8435 32.441 33.0781 32.441 33.8398 31.6842L35.2182 30.3146C35.9799 29.5578 35.9799 28.3311 35.2182 27.5743L30.8648 23.25L35.217 18.9245C35.9787 18.1677 35.9787 16.941 35.217 16.1842L33.8386 14.8146C33.0769 14.0578 31.8423 14.0578 31.0806 14.8146L23.9704 21.8792C23.2087 22.6361 23.2087 23.8627 23.9704 24.6196L31.0818 31.6842ZM42.783 30.3158L44.1614 31.6854C44.9231 32.4422 46.1577 32.4422 46.9194 31.6854L54.0296 24.6208C54.7913 23.8639 54.7913 22.6373 54.0296 21.8804L46.9194 14.8158C46.1577 14.059 44.9231 14.059 44.1614 14.8158L42.783 16.1854C42.0213 16.9422 42.0213 18.1689 42.783 18.9257L47.1352 23.25L42.783 27.5755C42.0213 28.3323 42.0213 29.559 42.783 30.3158ZM76.05 50.375H46.5002C46.41 52.7739 44.7074 54.25 42.51 54.25H35.1C32.8222 54.25 31.0757 52.1345 31.1062 50.375H1.95C0.8775 50.375 0 51.2469 0 52.3125V54.25C0 58.5125 3.51 62 7.8 62H70.2C74.49 62 78 58.5125 78 54.25V52.3125C78 51.2469 77.1225 50.375 76.05 50.375ZM70.2 5.8125C70.2 2.61563 67.5675 0 64.35 0H13.65C10.4325 0 7.8 2.61563 7.8 5.8125V46.5H70.2V5.8125ZM62.4 38.75H15.6V7.75H62.4V38.75Z" fill="#007DFE"/>
</svg>
