<svg width="62" height="62" viewBox="0 0 62 62" fill="none" xmlns="http://www.w3.org/2000/svg">
<path d="M45.0821 17.2481C46.3973 15.9389 46.3973 13.8053 45.0821 12.496L40.2437 7.65385L40.2507 7.66077C38.9701 6.37923 36.769 4.17636 33.6541 1.06601C32.1867 -0.367935 29.8125 -0.35408 28.3589 1.10065L1.10052 28.3595C0.751772 28.7061 0.474989 29.1184 0.286114 29.5725C0.0972378 30.0267 0 30.5138 0 31.0057C0 31.4976 0.0972378 31.9847 0.286114 32.4388C0.474989 32.893 0.751772 33.3052 1.10052 33.6519L28.352 60.9038C29.0546 61.6057 30.0068 62 30.9996 62C31.9924 62 32.9446 61.6057 33.6472 60.9038L45.0752 49.4738C46.3904 48.1645 46.3904 46.0309 45.0752 44.7217C44.4435 44.0927 43.5887 43.7395 42.6975 43.7395C41.8064 43.7395 40.9516 44.0927 40.3199 44.7217L31.6675 53.3946C31.3076 53.7548 30.7469 53.7548 30.387 53.3946L8.61768 31.6291C8.25774 31.2689 8.25774 30.7078 8.61768 30.3476L30.3801 8.5821C30.4077 8.55439 30.4424 8.53361 30.47 8.5059C30.83 8.22188 31.3284 8.24959 31.6606 8.5821L40.3268 17.2481C41.642 18.5643 43.7739 18.5643 45.0821 17.2481ZM23.7835 31.1442C23.7835 33.0954 24.5587 34.9666 25.9386 36.3462C27.3185 37.7259 29.19 38.501 31.1415 38.501C33.0929 38.501 34.9644 37.7259 36.3443 36.3462C37.7242 34.9666 38.4994 33.0954 38.4994 31.1442C38.4994 29.1931 37.7242 27.3219 36.3443 25.9422C34.9644 24.5625 33.0929 23.7875 31.1415 23.7875C29.19 23.7875 27.3185 24.5625 25.9386 25.9422C24.5587 27.3219 23.7835 29.1931 23.7835 31.1442ZM60.8986 28.4703L52.3916 19.9982C51.0765 18.689 48.9445 18.689 47.6363 20.0052C47.3236 20.3167 47.0755 20.687 46.9062 21.0947C46.7369 21.5025 46.6498 21.9397 46.6498 22.3812C46.6498 22.8228 46.7369 23.26 46.9062 23.6677C47.0755 24.0755 47.3236 24.4458 47.6363 24.7573L53.3815 30.5C53.7414 30.8602 53.7414 31.4213 53.3815 31.7815L47.7194 37.4411C47.4067 37.7526 47.1586 38.1229 46.9893 38.5307C46.82 38.9384 46.7328 39.3756 46.7328 39.8172C46.7328 40.2587 46.82 40.6959 46.9893 41.1037C47.1586 41.5114 47.4067 41.8817 47.7194 42.1932C48.3511 42.8223 49.2059 43.1754 50.097 43.1754C50.9881 43.1754 51.843 42.8223 52.4747 42.1932L60.9055 33.7627C61.2531 33.4152 61.5287 33.0024 61.7165 32.5481C61.9043 32.0937 62.0006 31.6068 62 31.1151C61.9994 30.6234 61.9017 30.1367 61.7127 29.6828C61.5237 29.229 61.2471 28.8169 60.8986 28.4703Z" fill="#007DFE"/>
</svg>
