<svg width="45" height="46" viewBox="0 0 45 46" fill="none" xmlns="http://www.w3.org/2000/svg">
<path d="M22.6951 3.44438e-05C13.839 -0.0156515 5.50346 5.32736 1.67798 13.7847L12.4345 13.8108V15.0077C9.12232 14.6022 9.41398 16.3522 9.88286 18.2096L16.944 36.2152L22.134 23.8371L19.7515 18.0361C18.886 16.4824 18.8678 14.7586 15.3272 14.921L15.3769 13.818L31.153 13.857V15.093C29.3054 15.2033 27.0814 14.6204 28.2603 18.4698L34.6409 35.5228L38.1289 25.5674C39.2711 21.3941 38.1962 17.3836 36.8389 13.4508C36.084 10.8125 36.4361 8.60917 39.8196 7.73513C34.655 2.37132 28.561 0.0104304 22.6953 3.44438e-05H22.6951ZM44.1513 15.7435L33.9233 42.869C36.7479 40.38 39.6441 39.474 43.188 32.5869C45.546 26.8584 45.3033 21.5517 44.1513 15.7434V15.7435ZM0.595361 16.1829C-0.402941 24.1908 -0.311615 26.5362 2.15961 33.0755C5.38089 39.3386 7.87889 40.6581 11.4243 43.1148L0.595316 16.1829H0.595361ZM23.0944 26.3436L15.5147 44.9506C20.8352 46.4957 25.5957 46.3023 29.9538 44.5834L23.0944 26.3435V26.3436Z" fill="#007DFE"/>
</svg>
